<?xml version="1.0" encoding="utf-8"?>
<!-- Generator: Adobe Illustrator 27.2.0, SVG Export Plug-In . SVG Version: 6.00 Build 0)  -->
<svg version="1.1" id="Layer_1" xmlns:vectornator="http://vectornator.io"
	 xmlns="http://www.w3.org/2000/svg" xmlns:xlink="http://www.w3.org/1999/xlink" x="0px" y="0px" viewBox="0 0 512 512"
	 style="enable-background:new 0 0 512 512;" xml:space="preserve">
<style type="text/css">
	.st0{display:none;fill:url(#SVGID_1_);}
	.st1{fill:url(#SVGID_00000072258183146676116490000017425644141576683664_);}
	.st2{fill:#FFFFFF;}
</style>
<g>
	<g id="Layer-1" vectornator:layerName="Layer 1">
		
			<linearGradient id="SVGID_1_" gradientUnits="userSpaceOnUse" x1="1.1684" y1="512.4393" x2="2.1432" y2="512.4393" gradientTransform="matrix(38.702 0 0 -38.702 -116.22 20156.0938)">
			<stop  offset="0" style="stop-color:#3395FF"/>
			<stop  offset="1" style="stop-color:#000000"/>
		</linearGradient>
		<path vectornator:layerName="Polygon 2" class="st0" d="M-52.1,305.3l18.9,14.1l-7.2,22.7h-23.3l-7.2-22.7L-52.1,305.3z"/>
		
			<linearGradient id="SVGID_00000019640123959519396090000013511801152566593965_" gradientUnits="userSpaceOnUse" x1="2.669792e-02" y1="512.0761" x2="1.0115" y2="512.0761" gradientTransform="matrix(345.597 387.95 397.898 -336.957 -203665.7031 172583.3906)">
			<stop  offset="0" style="stop-color:#295A5E"/>
			<stop  offset="0.425" style="stop-color:#27565A"/>
			<stop  offset="1" style="stop-color:#000000"/>
		</linearGradient>
		<path vectornator:layerName="Polygon 3" style="fill:url(#SVGID_00000019640123959519396090000013511801152566593965_);" d="
			M269.4,434.5l-169.3-97.8V141.2l169.3-97.8l169.3,97.8v195.5L269.4,434.5z"/>
		<path vectornator:layerName="Text 1" class="st2" d="M218.4,309.3c6.1,0,11.4,0.6,16.1,1.9c4.7,1.3,8.6,2.7,11.9,4.4
			c3.2,1.7,5.8,3.2,7.6,4.4c0.9,0.5,2.5,1.3,4.6,2.6c2.1,1.2,3.5,1.9,4.1,1.9V158.2c-2.4-4.5-6.1-8.6-11.1-12.2
			c-5-3.6-10.9-6.5-17.5-8.7c-6.6-2.1-13.5-3.2-20.7-3.2c-6.7,0-13.2,0.9-19.3,2.6c-6.1,1.7-11.7,3.9-16.6,6.6
			c-4.9,2.7-9.1,5.6-12.4,8.6c-3.3,3-5.6,5.9-6.9,8.6v155.3c0,3.7,0.9,6.3,2.7,7.8c1.8,1.5,4,2.3,6.6,2.3c2.1,0,3.9-0.3,5.3-1
			c1.4-0.7,2.8-1.6,4.1-2.7c2.2-1.9,5.3-3.9,9.3-5.9c4-2,8.7-3.7,14.2-5.1C205.7,310,211.7,309.3,218.4,309.3z M319.7,309.3
			c6.7,0,12.7,0.7,18.2,2c5.4,1.4,10.2,3.1,14.1,5.1c4,2,7.1,4,9.3,5.9c1.3,1.1,2.6,2,4.1,2.7c1.4,0.7,3.2,1,5.3,1
			c2.6,0,4.7-0.8,6.6-2.3c1.8-1.5,2.7-4.1,2.7-7.8V160.6c-1.3-2.7-3.6-5.6-6.9-8.6c-3.3-3-7.5-5.9-12.4-8.6
			c-4.9-2.7-10.4-4.9-16.5-6.6c-6.1-1.7-12.5-2.6-19.3-2.6c-7.1,0-14,1.1-20.7,3.2c-6.7,2.1-12.5,5-17.6,8.7
			c-5,3.6-8.7,7.7-11.1,12.2v166.5c0.6-0.1,2-0.7,4.1-2c2.1-1.3,3.7-2.2,4.7-2.7c1.7-1.3,4.2-2.8,7.5-4.4c3.2-1.7,7.2-3.1,11.9-4.4
			C308.3,310,313.7,309.3,319.7,309.3z"/>
	</g>
</g>
</svg>
